<svg width="175" height="90" fill="none" xmlns="http://www.w3.org/2000/svg"><rect x=".5" y=".5" width="174" height="89" rx="3.5" stroke="#AFB1B8"/><path d="M59.767 37.43h-.003c-2.329 0-4.217 1.732-4.217 3.868v.003c0 2.136 1.888 3.867 4.217 3.867h.003c2.329 0 4.217-1.731 4.217-3.867v-.003c0-2.136-1.888-3.867-4.217-3.867zM90.89 36.195c-.006-2.967-1.293-5.81-3.58-7.909-2.287-2.098-5.387-3.28-8.622-3.286-3.235.005-6.337 1.186-8.625 3.285-2.288 2.098-3.576 4.942-3.583 7.91v16.36s24.408-2.494 24.41-16.358v-.002zM47 57.924c.006 2.064.902 4.042 2.493 5.502 1.592 1.46 3.748 2.283 5.999 2.29 2.25-.007 4.406-.83 5.997-2.289 1.591-1.46 2.488-3.437 2.495-5.5V46.542S47 48.28 47 57.924zm8.492 2.04c-.44 0-.87-.12-1.236-.344a2.088 2.088 0 01-.819-.915 1.883 1.883 0 01-.126-1.179c.086-.396.297-.759.608-1.044.311-.285.708-.48 1.139-.558a2.41 2.41 0 011.285.116c.406.154.753.415.998.75.244.336.375.73.375 1.134 0 .268-.056.535-.167.783a2.036 2.036 0 01-.482.664c-.206.19-.452.341-.722.444-.27.103-.56.156-.853.156v-.007zM72.74 58.83h-1.687v1.744h-.879v-4.266h2.777v.712h-1.898v1.102h1.688v.709zm4.225-.292c0 .42-.074.788-.223 1.104-.148.316-.36.56-.638.732a1.755 1.755 0 01-.95.258c-.353 0-.668-.085-.946-.255a1.695 1.695 0 01-.644-.726 2.511 2.511 0 01-.232-1.09v-.21c0-.42.076-.79.226-1.108.152-.32.366-.566.641-.736.278-.172.594-.258.95-.258.355 0 .67.086.946.258.277.17.491.415.642.736.152.318.228.686.228 1.104v.19zm-.89-.194c0-.447-.08-.787-.24-1.02a.783.783 0 00-.686-.348.782.782 0 00-.683.346c-.16.228-.241.564-.243 1.008v.208c0 .435.08.773.24 1.013.16.24.39.36.692.36a.775.775 0 00.68-.345c.157-.233.238-.57.24-1.014v-.208zm3.74 1.11a.447.447 0 00-.175-.38c-.117-.09-.328-.184-.633-.282a4.565 4.565 0 01-.724-.293c-.484-.261-.726-.614-.726-1.057 0-.23.064-.436.193-.615.131-.182.318-.324.56-.425.244-.102.517-.153.82-.153.305 0 .576.056.815.167.238.11.422.265.553.466.133.202.2.43.2.686h-.88c0-.195-.06-.347-.184-.454-.123-.11-.296-.164-.519-.164-.214 0-.381.046-.5.137a.426.426 0 00-.18.358c0 .139.07.255.209.349.14.093.346.181.618.263.5.15.864.337 1.093.56.228.222.343.5.343.832 0 .369-.14.659-.42.87-.279.209-.655.313-1.127.313-.328 0-.627-.06-.897-.178a1.438 1.438 0 01-.618-.495 1.27 1.27 0 01-.211-.727h.882c0 .47.281.706.844.706.209 0 .372-.042.489-.126a.418.418 0 00.176-.357zm4.691-2.434H83.2v3.554h-.88V57.02h-1.288v-.712h3.474v.712zm3.07 1.705H85.89v1.143h1.98v.706H85.01v-4.266h2.853v.712H85.89v1.017h1.687v.688zm2.388.287h-.7v1.562h-.879v-4.266h1.585c.504 0 .892.112 1.166.337.273.225.41.542.41.952 0 .291-.063.534-.19.73a1.284 1.284 0 01-.572.463l.923 1.743v.04h-.943l-.8-1.56zm-.7-.712h.709c.22 0 .392-.055.513-.167a.607.607 0 00.181-.466c0-.2-.057-.359-.173-.474-.113-.115-.288-.173-.524-.173h-.706v1.28zm5.326.77v1.504h-.879v-4.266h1.664c.32 0 .602.059.844.176.244.117.432.284.563.5.13.216.196.46.196.736 0 .418-.144.748-.43.99-.286.24-.681.36-1.187.36h-.77zm0-.711h.785c.233 0 .41-.055.53-.164.124-.11.185-.266.185-.469a.704.704 0 00-.184-.507c-.124-.129-.294-.195-.51-.199h-.806v1.339zm5.561.366h-1.688v1.143h1.981v.706h-2.86v-4.266h2.854v.712h-1.975v1.017h1.688v.688zm4.078-1.705h-1.307v3.554h-.879V57.02h-1.289v-.712h3.475v.712zm3.07 1.705h-1.687v1.143h1.98v.706h-2.859v-4.266h2.853v.712h-1.974v1.017h1.687v.688zm2.388.287h-.7v1.562h-.879v-4.266h1.585c.504 0 .892.112 1.166.337.273.225.41.542.41.952 0 .291-.064.534-.191.73a1.282 1.282 0 01-.571.463l.923 1.743v.04h-.943l-.8-1.56zm-.7-.712h.709c.22 0 .391-.055.512-.167a.607.607 0 00.182-.466c0-.2-.058-.359-.173-.474-.113-.115-.288-.173-.524-.173h-.706v1.28zm5.165 1.155a.448.448 0 00-.176-.381c-.117-.09-.328-.184-.633-.282a4.566 4.566 0 01-.724-.293c-.484-.261-.726-.614-.726-1.057 0-.23.064-.436.193-.615a1.28 1.28 0 01.56-.425c.244-.102.517-.153.82-.153.305 0 .576.056.815.167.238.11.422.265.553.466.133.202.199.43.199.686h-.878c0-.195-.062-.347-.185-.454-.123-.11-.296-.164-.519-.164-.214 0-.381.046-.501.137a.425.425 0 00-.178.358c0 .139.069.255.208.349.14.093.346.181.618.263.5.15.864.337 1.093.56.228.222.342.5.342.832 0 .369-.139.659-.418.87-.28.209-.656.313-1.128.313-.329 0-.627-.06-.897-.178a1.444 1.444 0 01-.618-.495 1.268 1.268 0 01-.211-.727h.882c0 .47.281.706.844.706.209 0 .372-.042.489-.126a.419.419 0 00.176-.357z" fill="#AFB1B8"/></svg>